<?xml version="1.0" encoding="UTF-8"?>
<svg id="Layer_1" xmlns="http://www.w3.org/2000/svg" xmlns:xlink="http://www.w3.org/1999/xlink" viewBox="0 0 259.87 373.29">
  <defs>
    <style>
      .cls-1 {
        fill: url(#linear-gradient);
      }
    </style>
    <linearGradient id="linear-gradient" x1="121.93" y1="273.46" x2="149.79" y2="193.27" gradientUnits="userSpaceOnUse">
      <stop offset=".27" stop-color="#027fba"/>
      <stop offset=".45" stop-color="#359ccd"/>
      <stop offset=".63" stop-color="#62b6de"/>
      <stop offset=".71" stop-color="#74c1e5"/>
    </linearGradient>
  </defs>
  <path class="cls-1" d="M46.02,252.73c4.85,3.27,8.8,2.66,11.48,1.78.82-.27,1.35-1.04,1.33-1.9-.12-4.63-.33-19.49,1.7-23.86,3.52-8.3,14.41-10.54,20.37-3.59,3.65,4.3,4.08,8.73,3.97,13.89,0,4.54,0,12.49,0,20.29,0,6.31,0,22.9,0,28.56,0,2.09,9,2.09,9-.08,0-6.26,0-9.7,0-19.39.19-5.83-.75-10.49,1.65-15.68,3.52-8.3,14.41-10.54,20.37-3.59,3.65,4.3,4.08,8.73,3.97,13.89,0,4.54,0,12.49,0,20.29,0,5.52,0,14.03,0,16.65,0,2,10,2,10-.24,0-9.56,0-45.04,0-54.82.19-5.83-.75-10.49,1.65-15.68,3.52-8.3,14.41-10.54,20.37-3.59,3.65,4.3,4.08,8.73,3.97,13.89,0,4.54,0,12.49,0,20.29,0,5.38-.02,27.89-.02,36.97,0,2.06,9.02,2.18,9.02.18,0-19.11,0-82.98,0-92.06.19-5.83-.75-10.49,1.65-15.68,3.52-8.3,14.41-10.54,20.37-3.59,3.65,4.3,4.08,8.73,3.97,13.89,0,4.54,0,12.49,0,20.29,0,6.03,0,59.57,0,74.15,0,1.95,9,2,9,0,0-9.83,0-27.72,0-36.06.19-5.83-.75-10.49,1.65-15.68,3.52-8.3,14.41-10.54,20.37-3.59,3.65,4.3,4.08,8.73,3.97,13.89,0,4.54,0,12.49,0,20.29v12.05c0,2.1,8,2.1,8,.1,0-3.03,0-10.99,0-17.95s5.32-12.25,12.05-12.5h0c7.67-.28,13.95,5.77,13.95,13.45v16c0,18.74-32.75,88.85-122.58,89.29-11.31.05-22.64-.97-33.69-3.37-9.72-2.11-19.21-5.28-28.19-9.57-8.21-3.93-15.96-8.78-23.07-14.45-6.71-5.35-12.85-11.41-18.33-18.01-5.25-6.31-9.91-13.11-13.98-20.24-3.87-6.78-7.2-13.86-10.01-21.15-2.6-6.75-4.75-13.68-6.42-20.73-3.46-14.61-4.56-29.66-2.71-44.58,1.01-8.24,2.84-16.43,5.02-24.44,1.98-7.34,4.32-14.57,6.97-21.7,2.97-8,6.31-15.86,9.98-23.57,4.05-8.5,8.49-16.82,13.27-24.93,5.22-8.85,10.85-17.45,16.84-25.79,6.48-9.02,13.39-17.74,20.67-26.13,7.85-9.04,16.13-17.7,24.79-25.96,9.31-8.89,19.06-17.32,29.17-25.28,8.64-6.8,17.53-13.3,26.68-19.4,2.62-1.76,6.6-3.99,6.6-3.99,0,0-4,20,18,68,1.73,3.77,20.56,38.92,29.2,56.96.67,1.4.9,3.03.76,4.73-.63,8.13-9.08,13.04-16.76,10.29-3.4-1.22-6.24-3.03-8.2-5.97-5.77-8.65-14.07-26.23-23-44-10.36-20.61-16.2-42.38-16.74-43.48-.79-1.63-2.92-2.07-4.28-.87-1.99,1.76-3.96,3.55-5.92,5.35-4.46,4.12-8.85,8.32-13.16,12.6-5.73,5.68-11.33,11.49-16.79,17.43-6.36,6.92-12.53,14.01-18.47,21.3-6.37,7.83-12.47,15.88-18.18,24.21-5.78,8.42-11.17,17.12-15.94,26.15-4.61,8.71-8.65,17.75-11.74,27.12-2.89,8.78-4.94,17.89-5.57,27.13-.15,2.13-.22,4.27-.2,6.4.09,13.79,1.6,32.28,12.14,39.39Z"/>
</svg>